PathFileType	4	(X/Y/Z)	/Users/niels/Desktop/University/Third Semester/Perception and Action/Exam/Gymnastics Motion Tracking/Code for Gym Tracking/Analyzed Data/Webcam_Backflip/id2005_1_trajectory_Sports2D/id2005_1_trajectory_Sports2D_px_person00.trc
DataRate	CameraRate	NumFrames	NumMarkers	Units	OrigDataRate	OrigDataStartFrame	OrigNumFrames
29.77272727272727	29.77272727272727	22	22	m	29.77272727272727	79	132
Frame#	Time	Hip			RHip			RKnee			RAnkle			RBigToe			RSmallToe			RHeel			LHip			LKnee			LAnkle			LBigToe			LSmallToe			LHeel			Neck			Head			Nose			RShoulder			RElbow			RWrist			LShoulder			LElbow			LWrist		
		X1	Y1	Z1	X2	Y2	Z2	X3	Y3	Z3	X4	Y4	Z4	X5	Y5	Z5	X6	Y6	Z6	X7	Y7	Z7	X8	Y8	Z8	X9	Y9	Z9	X10	Y10	Z10	X11	Y11	Z11	X12	Y12	Z12	X13	Y13	Z13	X14	Y14	Z14	X15	Y15	Z15	X16	Y16	Z16	X17	Y17	Z17	X18	Y18	Z18	X19	Y19	Z19	X20	Y20	Z20	X21	Y21	Z21	X22	Y22	Z22
79	2.653435114503817	0.8812582569288683	-1.1148592144868892	0.0			0.0			0.0			0.0			0.0			0.0			0.0			0.0	1.412538444336295	-0.9543725170127414	0.0			0.0			0.0			0.0			0.0	0.9002117482601522	-0.7394247957092268	0.0	0.8893889167535894	-0.1730705841588097	0.0	0.8952080547571944	-0.39043251668349677	0.0	0.4338539093215178	-0.9667130226016997	0.0	0.2094987873920693	-1.0614198719376688	0.0			0.0	1.3695708324284286	-0.9014769424748561	0.0	1.630809309763191	-1.0736401695090363	0.0			0.0
80	2.687022900763359	0.8812515744120224	-1.114843138957519	0.0			0.0			0.0			0.0			0.0			0.0			0.0			0.0	1.4127420641273978	-0.9541681583664542	0.0			0.0			0.0			0.0			0.0	0.9002918751010465	-0.7396701508697751	0.0	0.8893975541986187	-0.1717194431960929	0.0	0.8956852235431212	-0.3905987606269879	0.0	0.4335782414081378	-0.9665816993871349	0.0	0.2094522644345957	-1.0619015778410625	0.0			0.0	1.3701996260839067	-0.9012957860061689	0.0	1.6422579199414031	-1.073535020598528	0.0			0.0
81	2.720610687022901	0.8812483910488124	-1.1148340328538202	0.0			0.0			0.0			0.0			0.0			0.0			0.0			0.0	1.4128728521376106	-0.9540362846347811	0.0			0.0			0.0			0.0			0.0	0.8999584424934622	-0.7388756989383363	0.0	0.8886644614874476	-0.1713615233539757	0.0	0.896032830808374	-0.3905222246659372	0.0	0.4336127775138405	-0.9661781731299391	0.0	0.2077473454424403	-1.0632304863836954	0.0			0.0	1.3706582073006135	-0.9007464100119359	0.0	1.6465741547700454	-1.0742767469721284	0.0			0.0
82	2.7541984732824427	0.881247511080364	-1.1148302607590526	0.0			0.0			0.0			0.0			0.0			0.0			0.0			0.0	1.4129383904325028	-0.9539689557857067	0.0			0.0			0.0			0.0			0.0	0.8993718436579077	-0.7372167287770706	0.0	0.8872930873652782	-0.1719301249997359	0.0	0.8961227694054363	-0.39021173664989556	0.0	0.43404839814674034	-0.96551528688684	0.0	0.20446111202961284	-1.06512517112634	0.0			0.0	1.3709091076583844	-0.8998255816830614	0.0	1.6412600282488505	-1.0757991718755346	0.0			0.0
83	2.787786259541985	0.8812478193910053	-1.1148297083424388	0.0			0.0			0.0			0.0			0.0			0.0			0.0			0.0	1.412959455197824	-0.953945107389354	0.0			0.0			0.0			0.0			0.0	0.8987155379780168	-0.7350996270822561	0.0	0.8855858959547644	-0.17307489253397182	0.0	0.8959084395064096	-0.3897444936112962	0.0	0.43475386620283185	-0.9647217894448732	0.0	0.20050283875962052	-1.067368984515386	0.0			0.0	1.3709866601205047	-0.8987035341547067	0.0	1.6280119519860965	-1.0777406923217132	0.0			0.0
84	2.821374045801527	0.8812485350364385	-1.1148306340677683	0.0			0.0			0.0			0.0			0.0			0.0			0.0			0.0	1.412956626042866	-0.9539442825222499	0.0			0.0			0.0			0.0			0.0	0.8981152041620226	-0.7332916213291936	0.0	0.8838437159604963	-0.1742049866299044	0.0	0.8954411879318012	-0.38923988956753425	0.0	0.4355554246450004	-0.9638887542042174	0.0	0.1969720503965614	-1.0695564618140077	0.0			0.0	1.3709098018014254	-0.8976419825734286	0.0	1.612507154589688	-1.0795164312745127	0.0			0.0
85	2.854961832061069	0.8812492257340901	-1.1148319201922314	0.0			0.0			0.0			0.0			0.0			0.0			0.0			0.0	1.4129447561768154	-0.9539526417051413	0.0			0.0			0.0			0.0			0.0	0.8975845936376389	-0.7325425285821136	0.0	0.8822289274683371	-0.17484211709934527	0.0	0.8947435565854936	-0.3888467245324816	0.0	0.4363428962866449	-0.9630612807688951	0.0	0.1942066680676296	-1.0711499788394014	0.0			0.0	1.370627963910472	-0.8967891336131454	0.0	1.5997920993353811	-1.0805971807280645	0.0			0.0
86	2.888549618320611	0.8812497197684607	-1.1148330080665212	0.0			0.0			0.0			0.0			0.0			0.0			0.0			0.0	1.412932161583225	-0.9539643287743647	0.0			0.0			0.0			0.0			0.0	0.8970826488877796	-0.7330645420831732	0.0	0.8807619275500487	-0.1748675129625124	0.0	0.8937425838321185	-0.38876047024162325	0.0	0.4370751503713848	-0.9622711325868555	0.0	0.1916560503620143	-1.071897143173395	0.0			0.0	1.370101309779559	-0.8961246669496278	0.0	1.5914187777178994	-1.0808062258091584	0.0			0.0
87	2.9221374045801527	0.8812499993190194	-1.1148337205713899	0.0			0.0			0.0			0.0			0.0			0.0			0.0			0.0	1.412921981118552	-0.9539805130300532	0.0			0.0			0.0			0.0			0.0	0.8966103602279527	-0.7344914109545699	0.0	0.879360340746694	-0.17442172969471514	0.0	0.8923986082077452	-0.3891574813912557	0.0	0.4377910608328036	-0.9614999777442597	0.0	0.18849426236024275	-1.0719197342468618	0.0			0.0	1.3694007037192844	-0.8955868903767595	0.0	1.5863627801720879	-1.0802948411890612	0.0			0.0
88	2.955725190839695	0.8812501149016797	-1.1148340858743175	0.0			0.0			0.0			0.0			0.0			0.0			0.0			0.0	1.412914120956626	-0.9540072249441809	0.0			0.0			0.0			0.0			0.0	0.8962048911272137	-0.7362082797675131	0.0	0.8779176385607094	-0.1737419341312803	0.0	0.8907925769261671	-0.39003985340628333	0.0	0.4385061710587229	-0.9607080488245531	0.0	0.18418971649241597	-1.0714300861799941	0.0			0.0	1.3686718028722	-0.8951500391284664	0.0	1.5828005708247002	-1.0792993625659577	0.0			0.0
89	2.9893129770992366	0.8812501316114896	-1.114834209285293	0.0			0.0			0.0			0.0			0.0			0.0			0.0			0.0	1.4129070583319456	-0.9540519700575737	0.0			0.0			0.0			0.0			0.0	0.8959000301107627	-0.7376904670774325	0.0	0.8764029662824954	-0.17301100179772338	0.0	0.8889960825256851	-0.39121950405988276	0.0	0.4390397978954234	-0.9599375445544976	0.0	0.1789666968957467	-1.070509727532712	0.0			0.0	1.368045287430051	-0.8948261596121369	0.0	1.5794666206665602	-1.0780067171819026	0.0			0.0
90	3.0229007633587788	0.8812501029977696	-1.1148341995439992	0.0			0.0			0.0			0.0			0.0			0.0			0.0			0.0	1.4128993620715087	-0.9541183561001915	0.0			0.0			0.0			0.0			0.0	0.8956877123859478	-0.7387118861829453	0.0	0.874930616474212	-0.1722739597865773	0.0	0.8870017787792096	-0.3925234184577494	0.0	0.4390718439823105	-0.9593662610492042	0.0	0.17430636058879212	-1.0691510128142847	0.0			0.0	1.367602853466849	-0.8946703483067822	0.0	1.5764318842508223	-1.0766201579571273	0.0			0.0
91	3.056488549618321	0.8812500633950092	-1.1148341374656425	0.0			0.0			0.0			0.0			0.0			0.0			0.0			0.0	1.4128910643928045	-0.9541978834177967	0.0			0.0			0.0			0.0			0.0	0.8954556821339938	-0.7393580371885382	0.0	0.8737310523009005	-0.17153858812436298	0.0	0.8848360512449182	-0.3939411101522795	0.0	0.4383746879929709	-0.9592645496058166	0.0	0.17233917566351625	-1.0675077804033088	0.0			0.0	1.367366917579296	-0.8947496866434513	0.0	1.5749274804849107	-1.075456117985791	0.0			0.0
92	3.0900763358778627	0.8812500299416156	-1.114834070532513	0.0			0.0			0.0			0.0			0.0			0.0			0.0			0.0	1.4128850154076222	-0.9542589863680169	0.0			0.0			0.0			0.0			0.0	0.8950455473039441	-0.7397985888188708	0.0	0.8729100539804355	-0.17094897405342294	0.0	0.8825540766368625	-0.3954581071531554	0.0	0.43702919558934167	-0.9597589160278049	0.0	0.17304458153388405	-1.0660528299110126	0.0			0.0	1.3672682988930327	-0.8950076554434493	0.0	1.57625523459759	-1.0748412883591147	0.0			0.0
93	3.123664122137405	0.8812500080531218	-1.1148340196552957	0.0			0.0			0.0			0.0			0.0			0.0			0.0			0.0	1.4128880952066754	-0.9542357910732294	0.0			0.0			0.0			0.0			0.0	0.8944303938986599	-0.7400231769647359	0.0	0.8722290504970939	-0.17083511410390304	0.0	0.8801312612332567	-0.3968100775177045	0.0	0.43559666216160087	-0.9605315061547502	0.0	0.1728987068534958	-1.065333861054634	0.0			0.0	1.3671708244014535	-0.8951684729030714	0.0	1.5807520293108757	-1.0748363803901044	0.0			0.0
94	3.1572519083969466	0.8812499968446146	-1.114833989133731	0.0			0.0			0.0			0.0			0.0			0.0			0.0			0.0	1.4129116739831864	-0.9540231479444921	0.0			0.0			0.0			0.0			0.0	0.8937319243093387	-0.7399000266713343	0.0	0.8713456785860818	-0.1715044440028205	0.0	0.8775112377276989	-0.3976525565175223	0.0	0.434860342133894	-0.9609626876830918	0.0	0.16837568096234476	-1.0654997333316927	0.0			0.0	1.3669974965152623	-0.89491491353686	0.0	1.587779802903311	-1.0750953003663681	0.0			0.0
95	3.1908396946564888	0.8812499930691146	-1.1148339752503744	0.0			0.0			0.0			0.0			0.0			0.0			0.0			0.0	1.4129700662190756	-0.9534899948127188	0.0			0.0			0.0			0.0			0.0	0.8930361671400477	-0.7394938129596971	0.0	0.8702529192677748	-0.17292491776042576	0.0	0.8747710470147312	-0.3979508625732499	0.0	0.43503514926639125	-0.9607680281745619	0.0	0.16034847120364823	-1.066128656553974	0.0			0.0	1.366807386371644	-0.8942124019155674	0.0	1.5962509282696975	-1.0751133189944717	0.0			0.0
96	3.224427480916031	0.8812499933806812	-1.1148339719813192	0.0			0.0			0.0			0.0			0.0			0.0			0.0			0.0	1.4130751099518282	-0.9525284169012662	0.0			0.0			0.0			0.0			0.0	0.8923134973716425	-0.739151462662684	0.0	0.869246042099375	-0.17466444942772313	0.0	0.8722665261247814	-0.3979420604952528	0.0	0.4355028444075741	-0.9603597759211556	0.0	0.15445110454591834	-1.06661641656689	0.0			0.0	1.3667292915871283	-0.8934278578370655	0.0	1.6041007866388524	-1.0747210838158776	0.0			0.0
97	3.2580152671755727	0.8812499952953283	-1.1148339739759245	0.0			0.0			0.0			0.0			0.0			0.0			0.0			0.0	1.4132248245715193	-0.9511571921031217	0.0			0.0			0.0			0.0			0.0	0.8915278733764669	-0.7391908408347572	0.0	0.8685191916635839	-0.17616048213833252	0.0	0.8704751883001685	-0.39787698167851343	0.0	0.4355299852076796	-0.9604131687450832	0.0	0.15651073206477722	-1.0667095523457573	0.0			0.0	1.366817284833615	-0.8930727781592612	0.0	1.6077482382148611	-1.0742492945223032	0.0			0.0
98	3.291603053435115	0.8812499973551174	-1.1148339776051908	0.0			0.0			0.0			0.0			0.0			0.0			0.0			0.0	1.4133937464053845	-0.9496101309303274	0.0			0.0			0.0			0.0			0.0	0.8907222791998539	-0.739631760004604	0.0	0.867958745681866	-0.1769989100608119	0.0	0.8694968270712229	-0.3979809114035781	0.0	0.4348992337699334	-0.961183116984321	0.0	0.16692917871059582	-1.066523880401175	0.0			0.0	1.3669562134739142	-0.8933809195467117	0.0	1.604721807373969	-1.0740972198164236	0.0			0.0
99	3.3251908396946566	0.8812499989190468	-1.1148339809299952	0.0			0.0			0.0			0.0			0.0			0.0			0.0			0.0	1.4135435173953024	-0.9482389251940521	0.0			0.0			0.0			0.0			0.0	0.8899756942167557	-0.7402733604393006	0.0	0.8672578216160632	-0.17698948157586347	0.0	0.8689003899591247	-0.3983409307604053	0.0	0.4338759735811711	-0.962357758842793	0.0	0.18065857603596636	-1.0661911129202146	0.0			0.0	1.366940302935532	-0.894159627786416	0.0	1.5965653429432107	-1.0742964692885217	0.0			0.0
100	3.3587786259541987	0.8812499998563033	-1.1148339832320147	0.0			0.0			0.0			0.0			0.0			0.0			0.0			0.0	1.41364859713253	-0.9472774287144398	0.0			0.0			0.0			0.0			0.0	0.8893085046533097	-0.7409093922660503	0.0	0.8661829901545609	-0.176199489081688	0.0	0.8681682706419097	-0.3987418868237516	0.0	0.4329114399299464	-0.9634521467480308	0.0	0.19225065189460433	-1.0658169418056729	0.0			0.0	1.3666429169245182	-0.8950191751327001	0.0	1.587069573476281	-1.0746309428835379	0.0			0.0
